<?xml version="1.0" encoding="UTF-8"?>
<svg id="Layer_1" xmlns="http://www.w3.org/2000/svg" width="4653.9386503" height="2194.4539877" version="1.1" xmlns:xlink="http://www.w3.org/1999/xlink" viewBox="0 0 4653.9386503 2194.4539877">
  <!-- Generator: Adobe Illustrator 30.4.0, SVG Export Plug-In . SVG Version: 2.1.4 Build 226)  -->
  <defs>
    <style>
      .st0 {
        fill: #00bfa5;
      }

      .st1 {
        fill: url(#linear-gradient1);
      }

      .st2 {
        fill: #fcb31b;
      }

      .st3 {
        fill: url(#linear-gradient);
      }
    </style>
    <linearGradient id="linear-gradient" x1="105.1333078" y1="1752.5841607" x2="4450.713981" y2="1752.5841607" gradientTransform="translate(0 2079.4110429) scale(1 -1)" gradientUnits="userSpaceOnUse">
      <stop offset="0" stop-color="#c36735"/>
      <stop offset="1" stop-color="#fcb31b"/>
    </linearGradient>
    <linearGradient id="linear-gradient1" x1="390.8442834" y1="686.8332681" x2="4491.6668848" y2="686.8332681" gradientTransform="translate(0 2079.4110429) scale(1 -1)" gradientUnits="userSpaceOnUse">
      <stop offset="0" stop-color="#006a61"/>
      <stop offset=".9999998" stop-color="#00bfa5"/>
    </linearGradient>
  </defs>
  <path class="st2" d="M675.0558389,815.3165444v262.4603882h-368.3166504c-113.1054382,0-200.1064606-81.2054443-200.1064606-201.5600586v-263.9101562h253.7613983v105.8525391c0,56.5545654,36.2494812,97.1573486,94.2539062,97.1573486h220.4078064v-.000061Z"/>
  <path class="st2" d="M791.064689,602.1579141h253.7614136v475.6190186h-253.7614136v-475.6190186Z"/>
  <path class="st2" d="M1839.4564127,600.7043008v275.5125732c0,120.3546143-87.0047607,200.1102295-200.1102295,200.1102295h-276.9624023c-113.1054688,0-201.5562744-79.7556152-201.5562744-200.1102295v-275.5125732h253.7576904v127.6074829c0,56.5508423,24.654541,85.5549316,72.5064697,85.5549316h27.5505371c55.1010742,0,71.0528564-36.2532349,71.0528564-85.5549316v-127.6074829h253.7613525Z"/>
  <path class="st2" d="M2027.9791177,603.6077432h349.4650879l139.2060547,150.8047485c37.6992188,40.6027222,53.651123,82.6552734,53.651123,134.8566284,0,107.3023682-76.8522949,188.5078125-214.6083984,188.5078125h-398.7705078v-262.4603271h271.1630859l-200.1064453-211.7088623Z"/>
  <path class="st2" d="M2686.3104166,603.6077432h253.7614746v123.2542725c0,60.9040527,17.4016113,88.4545898,84.1049805,88.4545898h78.302002v262.4603271h-218.9580078c-104.4064941,0-197.2104492-68.1531982-197.2104492-208.8092041v-265.3599854Z"/>
  <path class="st2" d="M3850.7071451,1077.7769326h-430.666748c-113.1054688,0-201.5563965-81.2054443-201.5563965-201.5600586v-263.9101562h548.1254883v133.4067993h-288.5646973c0,43.5023804,7.2492676,69.6030884,62.3500977,69.6030884h310.3122559v262.4603271Z"/>
  <path class="st2" d="M3963.8314127,603.6077432h253.7614746v474.1691895h-253.7614746v-474.1691895Z"/>
  <g>
    <path class="st0" d="M1387.0383447,1580.0683144v275.5125732c0,120.3546143-88.4508057,201.5600586-201.5562744,201.5600586h-168.2064819c-68.1532593,0-113.1054077-27.5505371-133.4067993-82.6552734-21.7512207,55.1047363-65.25354,82.6552734-137.7562866,82.6552734h-153.7081604c-113.1054382,0-201.5600281-81.2054443-201.5600281-201.5600586v-275.5125732h253.7614136v126.1575928c0,49.3017578,18.851532,78.302002,55.1047668,78.302002,40.6027527,0,62.3501892-27.5505371,62.3501892-78.302002v-126.1577148h253.7614136v126.1577148c0,52.201416,18.8515015,79.7518311,59.4542847,79.7518311,39.1528931,0,58.0006714-29.0003662,58.0006714-79.7518311v-126.1577148h253.7614136l-.0001221.0001221Z"/>
    <path class="st0" d="M2133.839248,2057.1409463h-430.6705322c-113.1054688,0-201.5600586-81.2054443-201.5600586-201.5600586v-263.9101562h548.1254883v133.4067383h-288.5610352c0,43.5024414,7.2491455,69.6030273,62.3502197,69.6030273h310.315918v262.4604492Z"/>
    <path class="st0" d="M2512.3233789,1581.5219277v116.0013428c0,63.8037109,31.8999023,97.1573486,95.7038574,97.1573486h73.9526367v-213.1586914h263.9140625v475.6190186h-495.9243164c-113.1052246,0-201.5598145-81.2054443-201.5598145-201.5600586v-274.059082h263.9138184l-.0002441.0001221Z"/>
    <path class="st0" d="M3273.6112207,2057.1409463c-172.5595703-124.7041016-208.809082-272.612915-211.7087402-477.0726318h253.7575684c0,94.2576904,17.4016113,159.5074463,89.9042969,213.1624756,66.7033691-39.152832,79.7556152-100.0570068,81.2055664-213.1623535h256.6611328c-1.4499512,73.9562988,5.7993164,163.8569336-40.6027832,274.0627441-37.6992188,89.9044189-89.904541,152.2583008-171.1062012,203.0098877h-258.1108398v-.0001221Z"/>
    <path class="st0" d="M4491.6668848,2057.1409463h-430.6706543c-113.1018066,0-201.5600586-81.2054443-201.5600586-201.5600586v-263.9101562h548.1252441v133.4067383h-288.5646973c0,43.5024414,7.2529297,69.6030273,62.3540039,69.6030273h310.3161621v262.4604492Z"/>
  </g>
  <path class="st0" d="M4378.4166177,534.3959512"/>
  <path class="st3" d="M952.806041,542.8663491V110.5722817l92.0200616,216.1471252-92.0200616,216.1469421ZM790.5150674,542.8674477h162.2909735V110.5733575h-137.3259835c-13.7877833,0-24.96499,11.1772067-24.96499,24.96499v407.3291003ZM1645.9330769,542.8669595v-260.1474609l-108.7551627,130.0737915,108.7551627,130.0736694ZM1807.7984622,282.7201089h-161.8653853v260.1474609h191.8058065v-234.8834725c0-13.9529156-13.4047832-25.2639885-29.9404212-25.2639885ZM1280.6762613,412.7955788l-118.6171875-130.0752258v260.1503296l118.6171875-130.0751343v.0000305ZM1414.542106,412.7939919l-106.7554932-130.0758972v260.1517334l106.7554932-130.0758057v-.0000305ZM2531.8315063,412.7929543l-127.1198499-130.0749207v260.1497192l127.1200004-130.0748291-.0001505.0000305ZM1983.6302637,542.2802895l421.0813928.5881348v-260.1497498h-263.2638037c-107.404608,0-179.5845797,71.5132751-179.5845797,159.7293701v25.0219727c0,16.5332642,3.4758402,32.9423828,10.2744393,48.5041504l11.4925514,26.3061218ZM3850.2826932,412.7922829l-127.4851472-130.0749207v260.1497803l127.4852827-130.0748291-.0001355-.0000305ZM3215.3963541,542.8677529h507.4011919v-260.1497498h-481.1907629c-14.4757395,0-26.2104291,9.3702087-26.2104291,20.9289551v239.2207947ZM4450.7134927,412.7944192l-175.7700195-130.0749207v260.1497192l175.7705078-130.0748291-.0004883.0000305ZM3964.9461588,542.8698891h309.9968262v-260.1497498h-289.0678711c-11.5588379,0-20.9289551,9.3702087-20.9289551,20.9289551v239.2207947ZM3102.478847,413.0057229l-166.81345-129.862793v259.7254944l166.8137207-129.8626709-.0002707-.0000305ZM2686.6973795,542.8690347h248.9680176V135.6837944c0-13.8681114-11.2423256-25.110437-25.110437-25.110437h-198.8365074c-13.8187572,0-25.0210733,11.2023161-25.0210733,25.0210733v407.2746039ZM675.1015403,413.0060128l-127.8131967-130.0749207v260.1497192l127.813348-130.0748291-.0001513.0000305ZM106.9560293,542.7036294l440.3323143.3778534v-260.1497498h-267.0184049c-107.2364495,0-175.1366308,71.5132751-175.1366308,159.7293701v25.0219727"/>
  <path class="st1" d="M3441.9124273,1392.5789346l108.5251338-130.0749512v260.1497803l-108.5251338-130.0748291ZM3712.1094295,1262.5045937h-161.6718684v260.1497803h191.4002221v-235.0256104c0-13.8756959-13.3098373-25.1241698-29.7283537-25.1241698ZM2133.839248,1392.5768594l-131.0433851-130.0749512v260.1497803l131.0433851-130.0748291ZM1501.6085352,1522.6524209h501.1873278v-260.1497803h-475.1891457c-14.3583661,0-25.998182,9.3702393-25.998182,20.9289551v239.2208252ZM2945.8938062,1392.5766152l-133.2047046-130.0749512v260.1497803l133.204834-130.0748291h-.0001294ZM2251.3128809,1522.6520547h561.3762207v-260.1497803h-534.8698844c-14.6391659,0-26.5063363,9.3702393-26.5063363,20.9289551v239.2208252ZM1199.8157337,1522.6510781v-260.1497803l-106.0750855,130.0749512,106.0750855,130.0748291ZM1358.1756382,1262.5020303h-158.3600456v260.1497803h187.0791975v-235.3179112c0-13.7142626-12.8580023-24.8318691-28.7191519-24.8318691ZM673.6670286,1392.5785683l-102.3367468-130.0749512-.0000338,260.1497803,102.3367806-130.0748291ZM390.8443004,1522.6540078h180.4859476v-260.1497803h-152.5623642c-15.4217786,0-27.9236003,11.2764001-27.9236003,25.1865445v234.9632358h.0000169ZM4491.6668848,1392.5791787l-147.6953125-130.0749512v260.1497803l147.6953125-130.0748291ZM3859.4361719,1522.6547402h484.5354004v-260.1497803h-454.4227216c-16.6307733,0-30.1126788,11.226139-30.1126788,25.0742832v235.0754971ZM3362.4032249,1392.5774697l-108.6820954-130.0766602v260.1533203l108.6820954-130.0766602ZM3062.044082,1522.6547402h191.6770474v-260.1533203h-161.6468047c-16.5852451,0-30.0302427,11.346291-30.0302427,25.3426502v234.8106701ZM873.7651881,1392.576249l-111.7045286-130.0749512-.0000369,260.1497803,111.7045655-130.0748291ZM1015.8220361,1392.576249l-114.6703071-130.0749512-.0000379,260.1497803,114.670345-130.0748291Z"/>
</svg>