<?xml version="1.0" encoding="UTF-8"?>
<svg id="Layer_1" xmlns="http://www.w3.org/2000/svg" width="5154.8466258" height="2411.6503067" version="1.1" viewBox="0 0 5154.8466258 2411.6503067">
  <!-- Generator: Adobe Illustrator 30.4.0, SVG Export Plug-In . SVG Version: 2.1.4 Build 226)  -->
  <path d="M749.1356018,855.0711295v262.4603271h-368.3166504c-113.1054382,0-200.1064606-81.2054443-200.1064606-201.5600586v-263.9101562h253.7613983v105.8525391c0,56.5545654,36.2494812,97.1573486,94.2539062,97.1573486h220.4078064v-.000061.000061Z"/>
  <path d="M865.1444519,641.9124992h253.7614746v475.6189575h-253.7614136v-475.6190186l-.000061.000061Z"/>
  <path d="M1913.5361755,640.4588859v275.5125732c0,120.3546143-87.0047607,200.1102905-200.1102295,200.1102905h-276.9624023c-113.1054688,0-201.5562744-79.7556152-201.5562744-200.1102295v-275.5125732h253.7576904v127.6074829c0,56.5508423,24.654541,85.5549316,72.5064697,85.5549316h27.5505371c55.1010742,0,71.0528564-36.2532349,71.0528564-85.5549316v-127.6074829h253.7613525v-.000061Z"/>
  <path d="M2102.0588806,643.3623283h349.46521l139.2060547,150.8047485c37.6992188,40.6027222,53.651123,82.6552734,53.651123,134.8566284,0,107.3023682-76.8522949,188.5077515-214.6083984,188.5077515h-398.7705078v-262.4603271h271.1630859l-200.1064453-211.7088623-.0001221.000061Z"/>
  <path d="M2760.3900573,643.3623283h253.7614746v123.2542725c0,60.9040527,17.4016113,88.4545898,84.1049805,88.4545898h78.302002v262.4602661h-218.9580078c-104.4064941,0-197.2104492-68.1531982-197.2104492-208.8092041v-265.3599854.000061Z"/>
  <path d="M3924.7867859,1117.5315788h-430.666748c-113.1054688,0-201.5563965-81.2054443-201.5563965-201.5600586v-263.9101562h548.1254883v133.4067993h-288.5646973c0,43.5023804,7.2492676,69.6030884,62.3500977,69.6030884h310.3122559v262.4603271Z"/>
  <path d="M4037.9110534,643.3623283h253.7614746v474.1691284h-253.7614746v-474.1691895.000061Z"/>
  <g>
    <path d="M1861.3385131,1728.4855373v275.5125732c0,120.3546143-88.4508057,201.5601807-201.5562744,201.5601807h-168.2064819c-68.1532593,0-113.1054077-27.5505371-133.4067993-82.6552734-21.7512207,55.1047363-65.25354,82.6552734-137.7562866,82.6552734h-153.7081909c-113.1054382,0-201.5600281-81.2054443-201.5600281-201.5600586v-275.5125732h253.7614441v126.1575928c0,49.3017578,18.8515625,78.302002,55.1047363,78.302002,40.6027832,0,62.3502197-27.5505371,62.3502197-78.302002v-126.1577148h253.7614136v126.1577148c0,52.201416,18.8515015,79.7518311,59.4542847,79.7518311,39.152832,0,58.0007324-29.0003662,58.0007324-79.7518311v-126.1577148h253.7614746l-.0001221.0001221-.0001221-.0001221Z"/>
    <path d="M2608.1395385,2205.5580471h-430.6705322c-113.1054688,0-201.5600586-81.2054443-201.5600586-201.5600586v-263.9101562h548.1256104v133.4067383h-288.5610352c0,43.5024414,7.2491455,69.6030273,62.3502197,69.6030273h310.3157959v262.4604492Z"/>
    <path d="M2986.6236694,1729.9391506v116.0013428c0,63.8037109,31.8999023,97.1573486,95.7038574,97.1573486h73.9526367v-213.1586914h263.9140625v475.6191406h-495.9243164c-113.1052246,0-201.5598145-81.2054443-201.5598145-201.5600586v-274.059082h263.9138184l-.0002441.0001221v-.0001221Z"/>
    <path d="M3747.9115112,2205.5580471c-172.5595703-124.7041016-208.809082-272.612915-211.7087402-477.0726318h253.7575684c0,94.2576904,17.4016113,159.5074463,89.9042969,213.1624756,66.7033691-39.152832,79.7556152-100.0570068,81.2055664-213.1623535h256.6611328c-1.4499512,73.9562988,5.7993164,163.8569336-40.6027832,274.0627441-37.6992188,89.9044189-89.904541,152.2583008-171.1062012,203.0100098h-258.1108398v-.0002441Z"/>
    <path d="M4965.9671753,2205.5580471h-430.6706543c-113.1018066,0-201.5600586-81.2054443-201.5600586-201.5600586v-263.9101562h548.1252441v133.4067383h-288.5644531c0,43.5024414,7.2529297,69.6030273,62.3540039,69.6030273h310.315918v262.4604492Z"/>
  </g>
  <path d="M4452.4962585,574.1505363"/>
  <path d="M1026.8857849,582.6209342V150.3268821l92.0200195,216.1471405-92.0200806,216.1469116h.000061ZM864.5948303,582.6220329h162.2909546V150.3279579h-137.3259888c-13.7877808,0-24.9649658,11.1772079-24.9649658,24.9649887v407.3290863ZM1720.0128601,582.6215446v-260.1474609l-108.755127,130.0737915,108.755127,130.0736694ZM1881.8782165,322.4747245h-161.8653564v260.1474304h191.8057861v-234.8834839c0-13.9529114-13.4047852-25.2639771-29.9404297-25.2639771v.0000305ZM1354.7560241,452.5501945l-118.6171875-130.0752258v260.1503601l118.6171875-130.0751343v.0000305-.0000305ZM1488.6218689,452.5486076l-106.7554932-130.0758972v260.1517639l106.7554932-130.0758057v-.000061ZM2605.9112976,452.54757l-127.119873-130.0749207v260.1497498l127.1201172-130.0748291-.0002441.0000305v-.0000305ZM2057.7100036,582.0348747l421.0814209.5881348v-260.1497498h-263.263916c-107.4046631,0-179.5845947,71.5132751-179.5845947,159.7293701v25.0219727c0,16.5332642,3.4758301,32.9423828,10.2744141,48.5041199l11.4925537,26.3061523h.0001221ZM3924.3624694,452.5468986l-127.4851074-130.0749207v260.1498108l127.4853516-130.0748291-.0002441-.0000305v-.0000305ZM3289.4759948,582.622338h507.401123v-260.1497498h-481.1906738c-14.4758301,0-26.2104492,9.3702087-26.2104492,20.9289551v239.2207947ZM4524.7931335,452.5490348l-175.7700195-130.0749207v260.1497498l175.7705078-130.0748291-.0004883.0000305v-.0000305ZM4039.0257995,582.6244743h309.9968262v-260.1497498h-289.0678711c-11.5588379,0-20.9289551,9.3702087-20.9289551,20.9289551v239.2207947ZM3176.5585144,452.7603385l-166.8134766-129.862793v259.7254639l166.8137207-129.8626709-.0002441-.0000305v.0000305ZM2760.7770202,582.6236198h248.9680176V175.4383933c0-13.8681107-11.2424316-25.1104355-25.1103516-25.1104355h-198.8364258c-13.8188477,0-25.0209961,11.2023163-25.0209961,25.0210648v407.2745972h-.0002441ZM749.1813171,452.7606132l-127.8131714-130.0749207v260.1497192l127.8133545-130.0748291-.0001221.0000305h-.000061ZM181.0357864,582.4582145l440.3322983.3778687v-260.1497498h-267.0184021c-107.2364502,0-175.1366272,71.5132751-175.1366272,159.7293701v25.0219727"/>
  <path d="M3916.2125366,1540.9961574l108.5251465-130.0749512v260.1497803l-108.5251465-130.0748291ZM4186.4095581,1410.9218166h-161.671875v260.1497803h191.4001465v-235.0256348c0-13.8757324-13.3098145-25.1241455-29.7282715-25.1241455ZM2608.1395385,1540.9940822l-131.043335-130.0749512v260.1497803l131.043335-130.0748291ZM1975.9087036,1671.0696437h501.1873779v-260.1497803h-475.189209c-14.3583984,0-25.9981689,9.3702393-25.9981689,20.9289551v239.2208252ZM3420.1939819,1540.9938381l-133.204834-130.0749512v260.1497803l133.204834-130.0748291h-.0002441.0002441ZM2725.6131713,1671.0692775h561.3762207v-260.1497803h-534.869873c-14.6391602,0-26.5063477,9.3702393-26.5063477,20.9289551v239.2208252ZM1674.1158569,1671.068301v-260.1497803l-106.0750732,130.0749512,106.0750732,130.0748291ZM1832.4758422,1410.9192531h-158.3599854v260.1497803h187.0792236v-235.3178711c0-13.7142334-12.8580322-24.8319092-28.7191162-24.8319092h-.0001221ZM1147.9672363,1540.9957912l-102.336731-130.0749512-.000061,260.1497803,102.336792-130.0748291ZM865.1444824,1671.0712306h180.4859619v-260.1497803h-152.5623779c-15.4217834,0-27.9236145,11.2763672-27.9236145,25.1865234v234.9632568h.0000305ZM4965.9671753,1540.9964015l-147.6953125-130.0749512v260.1497803l147.6953125-130.0748291ZM4333.7364624,1671.0719631h484.5354004v-260.1497803h-454.4228516c-16.6308594,0-30.112793,11.2261963-30.112793,25.0743408v235.0754395h.0002441ZM3836.7035034,1540.9946926l-108.6821289-130.0766602v260.1533203l108.6821289-130.0766602ZM3536.3443725,1671.0719631h191.677002v-260.1533203h-161.6467285c-16.5852051,0-30.0302734,11.3463135-30.0302734,25.3426514v234.8106689ZM1348.0653808,1540.9934719l-111.7045288-130.0749512-.000061,260.1497803,111.7045898-130.0748291ZM1490.1222046,1540.9934719l-114.6702881-130.0749512-.000061,260.1497803,114.6703491-130.0748291Z"/>
</svg>